<?xml version="1.0" standalone="no"?>
<!DOCTYPE svg PUBLIC "-//W3C//DTD SVG 20010904//EN"
 "http://www.w3.org/TR/2001/REC-SVG-20010904/DTD/svg10.dtd">
<svg version="1.0" xmlns="http://www.w3.org/2000/svg"
 width="260.000000pt" height="260.000000pt" viewBox="0 0 260.000000 260.000000"
 preserveAspectRatio="xMidYMid meet">
<metadata>
Created by potrace 1.14, written by Peter Selinger 2001-2017
</metadata>
<g transform="translate(0.000000,260.000000) scale(0.100000,-0.100000)"
fill="#000000" stroke="none">
<path d="M1218 2375 c-2 -2 -21 -5 -43 -9 -22 -3 -40 -5 -40 -6 -1 0 5 -96 9
-150 2 -30 13 -75 25 -100 11 -25 21 -53 21 -63 0 -10 6 -28 14 -40 11 -17 14
-55 12 -169 -1 -82 0 -148 3 -148 7 0 5 -243 -2 -283 -6 -34 -35 -79 -46 -73
-4 3 -5 27 -1 54 5 43 -24 211 -47 272 -4 8 -6 18 -5 21 2 9 -114 59 -135 59
-28 0 -136 -63 -253 -146 -136 -98 -144 -105 -203 -182 -48 -62 -159 -270
-152 -283 3 -4 2 -9 -2 -11 -8 -3 -44 -104 -69 -192 -33 -117 -38 -411 -9
-516 4 -16 11 -75 20 -170 3 -30 7 -64 9 -75 3 -11 5 -23 5 -27 2 -13 57 -24
91 -17 65 12 354 91 425 114 39 13 84 27 102 30 55 9 84 24 128 66 30 29 44
51 47 75 2 19 1 34 -2 34 -3 0 -3 25 0 55 5 47 12 61 43 90 33 31 37 40 38 87
6 373 5 476 -3 492 -8 15 -4 24 23 45 68 53 87 54 149 8 23 -17 25 -24 26
-130 1 -62 5 -144 8 -183 3 -39 7 -119 9 -177 l3 -107 37 -39 37 -40 -5 -82
-5 -81 46 -43 c25 -24 58 -48 73 -53 83 -30 512 -147 611 -167 9 -2 30 3 48
11 26 11 32 19 33 46 3 76 9 139 25 243 18 117 24 297 12 380 -4 28 -10 68
-14 90 -8 56 -99 300 -132 355 -15 25 -39 67 -52 95 -14 27 -34 61 -45 75 -22
28 -114 119 -136 135 -132 96 -176 125 -239 157 -41 21 -80 38 -86 38 -11 0
-125 -48 -132 -55 -12 -12 -54 -242 -53 -295 l0 -65 -22 29 c-25 34 -25 38
-31 214 -2 72 0 132 5 132 4 0 6 7 2 15 -11 30 -9 259 3 290 30 75 54 170 59
232 3 38 8 80 10 94 4 21 0 28 -18 33 -48 13 -82 6 -111 -24 -16 -17 -33 -30
-37 -30 -4 0 -24 15 -43 34 -20 18 -37 32 -38 31z"/>
</g>
</svg>
